# xmcd
#
# Track frame offsets: 
#        150
#        25358
#        51210
#        64713
#        79130
#        90883
#        102845
#        129375
#        154803
#        167815
#        181590
#        192918
#
# Disc length: 2735 seconds
#
# Revision: 1
# Processed by: cddbd v1.5.2PL0 Copyright (c) Steve Scherf et al.
# Submitted via: ExactAudioCopy v1.0b6
#
DISCID=8e0aad0c
DTITLE=Fats Navarro - Memorial
DYEAR=1946
DGENRE=Jazz
TTITLE0=Boppin' A Riff 1&2 (1946)
TTITLE1=Fat Boy (1946)
TTITLE2=Be Bob Carroll (1947)
TTITLE3=Gone With The Wind (1947)
TTITLE4=Serenade to a Square (1946)
TTITLE5=Good Kick (1946)
TTITLE6=Everything Cool (1946)
TTITLE7=Webb City 1&2 (1946)
TTITLE8=Tadd Walk (1947)
TTITLE9=That Someone Must Be You (1947)
TTITLE10=Seven Up (1946)
TTITLE11=Blues In Be Bop (1946)
EXTD=YEAR: 1946
EXTT0=
EXTT1=
EXTT2=
EXTT3=
EXTT4=
EXTT5=
EXTT6=
EXTT7=
EXTT8=
EXTT9=
EXTT10=
EXTT11=
PLAYORDER=
